<svg width="661" height="647" viewBox="0 0 661 647" fill="none" xmlns="http://www.w3.org/2000/svg">
<g filter="url(#filter0_d_0_260)">
<rect x="154" y="303" width="447" height="245" rx="10" fill="url(#paint0_linear_0_260)"/>
<rect x="154" y="326" width="447" height="54" fill="#2F2F2F"/>
<g clip-path="url(#clip0_0_260)">
<rect x="199" y="404" width="361" height="38" rx="4" fill="#ADB5BE"/>
<path d="M517.438 428.196C516.299 428.196 515.389 427.874 514.708 427.23C514.036 426.577 513.7 425.597 513.7 424.29V421.91C513.7 420.631 514.036 419.661 514.708 418.998C515.389 418.335 516.299 418.004 517.438 418.004C518.586 418.004 519.496 418.335 520.168 418.998C520.849 419.661 521.19 420.631 521.19 421.91V424.29C521.19 425.597 520.849 426.577 520.168 427.23C519.496 427.874 518.586 428.196 517.438 428.196ZM517.438 426.88C518.212 426.88 518.786 426.661 519.16 426.222C519.533 425.774 519.72 425.149 519.72 424.346V421.826C519.72 421.023 519.519 420.407 519.118 419.978C518.716 419.539 518.156 419.32 517.438 419.32C516.71 419.32 516.15 419.544 515.758 419.992C515.366 420.431 515.17 421.042 515.17 421.826V424.346C515.17 425.167 515.356 425.797 515.73 426.236C516.112 426.665 516.682 426.88 517.438 426.88ZM528.461 428.196C527.322 428.196 526.412 427.874 525.731 427.23C525.059 426.577 524.723 425.597 524.723 424.29V421.91C524.723 420.631 525.059 419.661 525.731 418.998C526.412 418.335 527.322 418.004 528.461 418.004C529.609 418.004 530.519 418.335 531.191 418.998C531.872 419.661 532.213 420.631 532.213 421.91V424.29C532.213 425.597 531.872 426.577 531.191 427.23C530.519 427.874 529.609 428.196 528.461 428.196ZM528.461 426.88C529.236 426.88 529.81 426.661 530.183 426.222C530.556 425.774 530.743 425.149 530.743 424.346V421.826C530.743 421.023 530.542 420.407 530.141 419.978C529.74 419.539 529.18 419.32 528.461 419.32C527.733 419.32 527.173 419.544 526.781 419.992C526.389 420.431 526.193 421.042 526.193 421.826V424.346C526.193 425.167 526.38 425.797 526.753 426.236C527.136 426.665 527.705 426.88 528.461 426.88ZM539.485 428.196C538.346 428.196 537.436 427.874 536.755 427.23C536.083 426.577 535.747 425.597 535.747 424.29V421.91C535.747 420.631 536.083 419.661 536.755 418.998C537.436 418.335 538.346 418.004 539.485 418.004C540.633 418.004 541.543 418.335 542.215 418.998C542.896 419.661 543.237 420.631 543.237 421.91V424.29C543.237 425.597 542.896 426.577 542.215 427.23C541.543 427.874 540.633 428.196 539.485 428.196ZM539.485 426.88C540.259 426.88 540.833 426.661 541.207 426.222C541.58 425.774 541.767 425.149 541.767 424.346V421.826C541.767 421.023 541.566 420.407 541.165 419.978C540.763 419.539 540.203 419.32 539.485 419.32C538.757 419.32 538.197 419.544 537.805 419.992C537.413 420.431 537.217 421.042 537.217 421.826V424.346C537.217 425.167 537.403 425.797 537.777 426.236C538.159 426.665 538.729 426.88 539.485 426.88Z" fill="white"/>
</g>
<g clip-path="url(#clip1_0_260)">
<rect x="60" y="21" width="447" height="245" rx="10" fill="url(#paint1_linear_0_260)"/>
<mask id="mask0_0_260" style="mask-type:luminance" maskUnits="userSpaceOnUse" x="60" y="21" width="447" height="245">
<rect x="60" y="21" width="447" height="245" rx="10" fill="white"/>
</mask>
<g mask="url(#mask0_0_260)">
<g opacity="0.847405" filter="url(#filter1_f_0_260)">
<ellipse cx="332.655" cy="82.6554" rx="65.5" ry="181.5" transform="rotate(45 332.655 82.6554)" fill="#D53AFF"/>
</g>
<g opacity="0.847405" filter="url(#filter2_f_0_260)">
<ellipse cx="431.655" cy="77.6554" rx="65.5" ry="181.5" transform="rotate(45 431.655 77.6554)" fill="#FF834A"/>
</g>
<g opacity="0.847405" filter="url(#filter3_f_0_260)">
<ellipse cx="300.655" cy="234.655" rx="65.5" ry="181.5" transform="rotate(45 300.655 234.655)" fill="#47A2FF"/>
</g>
</g>
<path d="M101.016 188.392C98.7387 188.392 96.9187 187.748 95.556 186.46C94.212 185.153 93.54 183.193 93.54 180.58V175.82C93.54 173.263 94.212 171.321 95.556 169.996C96.9187 168.671 98.7387 168.008 101.016 168.008C103.312 168.008 105.132 168.671 106.476 169.996C107.839 171.321 108.52 173.263 108.52 175.82V180.58C108.52 183.193 107.839 185.153 106.476 186.46C105.132 187.748 103.312 188.392 101.016 188.392ZM101.016 185.76C102.565 185.76 103.713 185.321 104.46 184.444C105.207 183.548 105.58 182.297 105.58 180.692V175.652C105.58 174.047 105.179 172.815 104.376 171.956C103.573 171.079 102.453 170.64 101.016 170.64C99.56 170.64 98.44 171.088 97.656 171.984C96.872 172.861 96.48 174.084 96.48 175.652V180.692C96.48 182.335 96.8533 183.595 97.6 184.472C98.3653 185.331 99.504 185.76 101.016 185.76ZM122.485 188.392C120.208 188.392 118.388 187.748 117.025 186.46C115.681 185.153 115.009 183.193 115.009 180.58V175.82C115.009 173.263 115.681 171.321 117.025 169.996C118.388 168.671 120.208 168.008 122.485 168.008C124.781 168.008 126.601 168.671 127.945 169.996C129.308 171.321 129.989 173.263 129.989 175.82V180.58C129.989 183.193 129.308 185.153 127.945 186.46C126.601 187.748 124.781 188.392 122.485 188.392ZM122.485 185.76C124.034 185.76 125.182 185.321 125.929 184.444C126.676 183.548 127.049 182.297 127.049 180.692V175.652C127.049 174.047 126.648 172.815 125.845 171.956C125.042 171.079 123.922 170.64 122.485 170.64C121.029 170.64 119.909 171.088 119.125 171.984C118.341 172.861 117.949 174.084 117.949 175.652V180.692C117.949 182.335 118.322 183.595 119.069 184.472C119.834 185.331 120.973 185.76 122.485 185.76ZM143.954 188.392C141.677 188.392 139.857 187.748 138.494 186.46C137.15 185.153 136.478 183.193 136.478 180.58V175.82C136.478 173.263 137.15 171.321 138.494 169.996C139.857 168.671 141.677 168.008 143.954 168.008C146.25 168.008 148.07 168.671 149.414 169.996C150.777 171.321 151.458 173.263 151.458 175.82V180.58C151.458 183.193 150.777 185.153 149.414 186.46C148.07 187.748 146.25 188.392 143.954 188.392ZM143.954 185.76C145.504 185.76 146.652 185.321 147.398 184.444C148.145 183.548 148.518 182.297 148.518 180.692V175.652C148.518 174.047 148.117 172.815 147.314 171.956C146.512 171.079 145.392 170.64 143.954 170.64C142.498 170.64 141.378 171.088 140.594 171.984C139.81 172.861 139.418 174.084 139.418 175.652V180.692C139.418 182.335 139.792 183.595 140.538 184.472C141.304 185.331 142.442 185.76 143.954 185.76ZM165.423 188.392C163.146 188.392 161.326 187.748 159.963 186.46C158.619 185.153 157.947 183.193 157.947 180.58V175.82C157.947 173.263 158.619 171.321 159.963 169.996C161.326 168.671 163.146 168.008 165.423 168.008C167.719 168.008 169.539 168.671 170.883 169.996C172.246 171.321 172.927 173.263 172.927 175.82V180.58C172.927 183.193 172.246 185.153 170.883 186.46C169.539 187.748 167.719 188.392 165.423 188.392ZM165.423 185.76C166.973 185.76 168.121 185.321 168.867 184.444C169.614 183.548 169.987 182.297 169.987 180.692V175.652C169.987 174.047 169.586 172.815 168.783 171.956C167.981 171.079 166.861 170.64 165.423 170.64C163.967 170.64 162.847 171.088 162.063 171.984C161.279 172.861 160.887 174.084 160.887 175.652V180.692C160.887 182.335 161.261 183.595 162.007 184.472C162.773 185.331 163.911 185.76 165.423 185.76ZM197.451 188.392C195.174 188.392 193.354 187.748 191.991 186.46C190.647 185.153 189.975 183.193 189.975 180.58V175.82C189.975 173.263 190.647 171.321 191.991 169.996C193.354 168.671 195.174 168.008 197.451 168.008C199.747 168.008 201.567 168.671 202.911 169.996C204.274 171.321 204.955 173.263 204.955 175.82V180.58C204.955 183.193 204.274 185.153 202.911 186.46C201.567 187.748 199.747 188.392 197.451 188.392ZM197.451 185.76C199.001 185.76 200.149 185.321 200.895 184.444C201.642 183.548 202.015 182.297 202.015 180.692V175.652C202.015 174.047 201.614 172.815 200.811 171.956C200.009 171.079 198.889 170.64 197.451 170.64C195.995 170.64 194.875 171.088 194.091 171.984C193.307 172.861 192.915 174.084 192.915 175.652V180.692C192.915 182.335 193.289 183.595 194.035 184.472C194.801 185.331 195.939 185.76 197.451 185.76ZM218.92 188.392C216.643 188.392 214.823 187.748 213.46 186.46C212.116 185.153 211.444 183.193 211.444 180.58V175.82C211.444 173.263 212.116 171.321 213.46 169.996C214.823 168.671 216.643 168.008 218.92 168.008C221.216 168.008 223.036 168.671 224.38 169.996C225.743 171.321 226.424 173.263 226.424 175.82V180.58C226.424 183.193 225.743 185.153 224.38 186.46C223.036 187.748 221.216 188.392 218.92 188.392ZM218.92 185.76C220.47 185.76 221.618 185.321 222.364 184.444C223.111 183.548 223.484 182.297 223.484 180.692V175.652C223.484 174.047 223.083 172.815 222.28 171.956C221.478 171.079 220.358 170.64 218.92 170.64C217.464 170.64 216.344 171.088 215.56 171.984C214.776 172.861 214.384 174.084 214.384 175.652V180.692C214.384 182.335 214.758 183.595 215.504 184.472C216.27 185.331 217.408 185.76 218.92 185.76ZM240.39 188.392C238.112 188.392 236.292 187.748 234.93 186.46C233.586 185.153 232.914 183.193 232.914 180.58V175.82C232.914 173.263 233.586 171.321 234.93 169.996C236.292 168.671 238.112 168.008 240.39 168.008C242.686 168.008 244.506 168.671 245.85 169.996C247.212 171.321 247.894 173.263 247.894 175.82V180.58C247.894 183.193 247.212 185.153 245.85 186.46C244.506 187.748 242.686 188.392 240.39 188.392ZM240.39 185.76C241.939 185.76 243.087 185.321 243.834 184.444C244.58 183.548 244.954 182.297 244.954 180.692V175.652C244.954 174.047 244.552 172.815 243.75 171.956C242.947 171.079 241.827 170.64 240.39 170.64C238.934 170.64 237.814 171.088 237.03 171.984C236.246 172.861 235.854 174.084 235.854 175.652V180.692C235.854 182.335 236.227 183.595 236.974 184.472C237.739 185.331 238.878 185.76 240.39 185.76ZM261.859 188.392C259.581 188.392 257.761 187.748 256.399 186.46C255.055 185.153 254.383 183.193 254.383 180.58V175.82C254.383 173.263 255.055 171.321 256.399 169.996C257.761 168.671 259.581 168.008 261.859 168.008C264.155 168.008 265.975 168.671 267.319 169.996C268.681 171.321 269.363 173.263 269.363 175.82V180.58C269.363 183.193 268.681 185.153 267.319 186.46C265.975 187.748 264.155 188.392 261.859 188.392ZM261.859 185.76C263.408 185.76 264.556 185.321 265.303 184.444C266.049 183.548 266.423 182.297 266.423 180.692V175.652C266.423 174.047 266.021 172.815 265.219 171.956C264.416 171.079 263.296 170.64 261.859 170.64C260.403 170.64 259.283 171.088 258.499 171.984C257.715 172.861 257.323 174.084 257.323 175.652V180.692C257.323 182.335 257.696 183.595 258.443 184.472C259.208 185.331 260.347 185.76 261.859 185.76ZM293.887 188.392C291.609 188.392 289.789 187.748 288.427 186.46C287.083 185.153 286.411 183.193 286.411 180.58V175.82C286.411 173.263 287.083 171.321 288.427 169.996C289.789 168.671 291.609 168.008 293.887 168.008C296.183 168.008 298.003 168.671 299.347 169.996C300.709 171.321 301.391 173.263 301.391 175.82V180.58C301.391 183.193 300.709 185.153 299.347 186.46C298.003 187.748 296.183 188.392 293.887 188.392ZM293.887 185.76C295.436 185.76 296.584 185.321 297.331 184.444C298.077 183.548 298.451 182.297 298.451 180.692V175.652C298.451 174.047 298.049 172.815 297.247 171.956C296.444 171.079 295.324 170.64 293.887 170.64C292.431 170.64 291.311 171.088 290.527 171.984C289.743 172.861 289.351 174.084 289.351 175.652V180.692C289.351 182.335 289.724 183.595 290.471 184.472C291.236 185.331 292.375 185.76 293.887 185.76ZM315.356 188.392C313.078 188.392 311.258 187.748 309.896 186.46C308.552 185.153 307.88 183.193 307.88 180.58V175.82C307.88 173.263 308.552 171.321 309.896 169.996C311.258 168.671 313.078 168.008 315.356 168.008C317.652 168.008 319.472 168.671 320.816 169.996C322.178 171.321 322.86 173.263 322.86 175.82V180.58C322.86 183.193 322.178 185.153 320.816 186.46C319.472 187.748 317.652 188.392 315.356 188.392ZM315.356 185.76C316.905 185.76 318.053 185.321 318.8 184.444C319.546 183.548 319.92 182.297 319.92 180.692V175.652C319.92 174.047 319.518 172.815 318.716 171.956C317.913 171.079 316.793 170.64 315.356 170.64C313.9 170.64 312.78 171.088 311.996 171.984C311.212 172.861 310.82 174.084 310.82 175.652V180.692C310.82 182.335 311.193 183.595 311.94 184.472C312.705 185.331 313.844 185.76 315.356 185.76ZM336.825 188.392C334.548 188.392 332.728 187.748 331.365 186.46C330.021 185.153 329.349 183.193 329.349 180.58V175.82C329.349 173.263 330.021 171.321 331.365 169.996C332.728 168.671 334.548 168.008 336.825 168.008C339.121 168.008 340.941 168.671 342.285 169.996C343.648 171.321 344.329 173.263 344.329 175.82V180.58C344.329 183.193 343.648 185.153 342.285 186.46C340.941 187.748 339.121 188.392 336.825 188.392ZM336.825 185.76C338.374 185.76 339.522 185.321 340.269 184.444C341.016 183.548 341.389 182.297 341.389 180.692V175.652C341.389 174.047 340.988 172.815 340.185 171.956C339.382 171.079 338.262 170.64 336.825 170.64C335.369 170.64 334.249 171.088 333.465 171.984C332.681 172.861 332.289 174.084 332.289 175.652V180.692C332.289 182.335 332.662 183.595 333.409 184.472C334.174 185.331 335.313 185.76 336.825 185.76ZM358.294 188.392C356.017 188.392 354.197 187.748 352.834 186.46C351.49 185.153 350.818 183.193 350.818 180.58V175.82C350.818 173.263 351.49 171.321 352.834 169.996C354.197 168.671 356.017 168.008 358.294 168.008C360.59 168.008 362.41 168.671 363.754 169.996C365.117 171.321 365.798 173.263 365.798 175.82V180.58C365.798 183.193 365.117 185.153 363.754 186.46C362.41 187.748 360.59 188.392 358.294 188.392ZM358.294 185.76C359.843 185.76 360.991 185.321 361.738 184.444C362.485 183.548 362.858 182.297 362.858 180.692V175.652C362.858 174.047 362.457 172.815 361.654 171.956C360.851 171.079 359.731 170.64 358.294 170.64C356.838 170.64 355.718 171.088 354.934 171.984C354.15 172.861 353.758 174.084 353.758 175.652V180.692C353.758 182.335 354.131 183.595 354.878 184.472C355.643 185.331 356.782 185.76 358.294 185.76ZM390.322 188.392C388.045 188.392 386.225 187.748 384.862 186.46C383.518 185.153 382.846 183.193 382.846 180.58V175.82C382.846 173.263 383.518 171.321 384.862 169.996C386.225 168.671 388.045 168.008 390.322 168.008C392.618 168.008 394.438 168.671 395.782 169.996C397.145 171.321 397.826 173.263 397.826 175.82V180.58C397.826 183.193 397.145 185.153 395.782 186.46C394.438 187.748 392.618 188.392 390.322 188.392ZM390.322 185.76C391.871 185.76 393.019 185.321 393.766 184.444C394.513 183.548 394.886 182.297 394.886 180.692V175.652C394.886 174.047 394.485 172.815 393.682 171.956C392.879 171.079 391.759 170.64 390.322 170.64C388.866 170.64 387.746 171.088 386.962 171.984C386.178 172.861 385.786 174.084 385.786 175.652V180.692C385.786 182.335 386.159 183.595 386.906 184.472C387.671 185.331 388.81 185.76 390.322 185.76ZM411.791 188.392C409.514 188.392 407.694 187.748 406.331 186.46C404.987 185.153 404.315 183.193 404.315 180.58V175.82C404.315 173.263 404.987 171.321 406.331 169.996C407.694 168.671 409.514 168.008 411.791 168.008C414.087 168.008 415.907 168.671 417.251 169.996C418.614 171.321 419.295 173.263 419.295 175.82V180.58C419.295 183.193 418.614 185.153 417.251 186.46C415.907 187.748 414.087 188.392 411.791 188.392ZM411.791 185.76C413.34 185.76 414.488 185.321 415.235 184.444C415.982 183.548 416.355 182.297 416.355 180.692V175.652C416.355 174.047 415.954 172.815 415.151 171.956C414.348 171.079 413.228 170.64 411.791 170.64C410.335 170.64 409.215 171.088 408.431 171.984C407.647 172.861 407.255 174.084 407.255 175.652V180.692C407.255 182.335 407.628 183.595 408.375 184.472C409.14 185.331 410.279 185.76 411.791 185.76ZM433.26 188.392C430.983 188.392 429.163 187.748 427.8 186.46C426.456 185.153 425.784 183.193 425.784 180.58V175.82C425.784 173.263 426.456 171.321 427.8 169.996C429.163 168.671 430.983 168.008 433.26 168.008C435.556 168.008 437.376 168.671 438.72 169.996C440.083 171.321 440.764 173.263 440.764 175.82V180.58C440.764 183.193 440.083 185.153 438.72 186.46C437.376 187.748 435.556 188.392 433.26 188.392ZM433.26 185.76C434.81 185.76 435.958 185.321 436.704 184.444C437.451 183.548 437.824 182.297 437.824 180.692V175.652C437.824 174.047 437.423 172.815 436.62 171.956C435.818 171.079 434.698 170.64 433.26 170.64C431.804 170.64 430.684 171.088 429.9 171.984C429.116 172.861 428.724 174.084 428.724 175.652V180.692C428.724 182.335 429.098 183.595 429.844 184.472C430.61 185.331 431.748 185.76 433.26 185.76ZM454.729 188.392C452.452 188.392 450.632 187.748 449.269 186.46C447.925 185.153 447.253 183.193 447.253 180.58V175.82C447.253 173.263 447.925 171.321 449.269 169.996C450.632 168.671 452.452 168.008 454.729 168.008C457.025 168.008 458.845 168.671 460.189 169.996C461.552 171.321 462.233 173.263 462.233 175.82V180.58C462.233 183.193 461.552 185.153 460.189 186.46C458.845 187.748 457.025 188.392 454.729 188.392ZM454.729 185.76C456.279 185.76 457.427 185.321 458.173 184.444C458.92 183.548 459.293 182.297 459.293 180.692V175.652C459.293 174.047 458.892 172.815 458.089 171.956C457.287 171.079 456.167 170.64 454.729 170.64C453.273 170.64 452.153 171.088 451.369 171.984C450.585 172.861 450.193 174.084 450.193 175.652V180.692C450.193 182.335 450.567 183.595 451.313 184.472C452.079 185.331 453.217 185.76 454.729 185.76Z" fill="white"/>
<ellipse cx="115.478" cy="72.5" rx="23.4783" ry="23.5" fill="white"/>
<path d="M175.5 72.5C175.5 78.0647 170.993 82.575 165.435 82.575C159.876 82.575 155.37 78.0647 155.37 72.5C155.37 66.9353 159.876 62.425 165.435 62.425C170.993 62.425 175.5 66.9353 175.5 72.5Z" stroke="white"/>
<g clip-path="url(#clip2_0_260)">
<path d="M95.71 235.696C94.73 235.696 93.9507 235.425 93.372 234.884C92.7933 234.333 92.504 233.559 92.504 232.56V231.72H94.016V232.56C94.016 233.083 94.156 233.503 94.436 233.82C94.7253 234.128 95.1407 234.282 95.682 234.282C96.2047 234.282 96.592 234.128 96.844 233.82C97.096 233.512 97.222 233.092 97.222 232.56V227.072H95.514V225.7H99.826V227.072H98.734V232.56C98.734 233.577 98.468 234.357 97.936 234.898C97.4133 235.43 96.6713 235.696 95.71 235.696ZM102.224 235.5L105.024 225.7H107.684L110.47 235.5H108.916L108.272 233.19H104.436L103.792 235.5H102.224ZM104.814 231.79H107.894L106.466 226.638H106.242L104.814 231.79ZM113.797 235.5V225.7H116.709L119.369 234.492H119.593V225.7H121.091V235.5H118.179L115.519 226.694H115.295V235.5H113.797ZM125.135 235.5V225.7H131.309V227.072H126.647V229.886H130.917V231.258H126.647V234.128H131.379V235.5H125.135ZM139.618 235.5L142.418 225.7H145.078L147.864 235.5H146.31L145.666 233.19H141.83L141.186 235.5H139.618ZM142.208 231.79H145.288L143.86 226.638H143.636L142.208 231.79ZM151.192 235.5V225.7H155.084C155.681 225.7 156.213 225.821 156.68 226.064C157.156 226.297 157.525 226.633 157.786 227.072C158.057 227.501 158.192 228.019 158.192 228.626V228.808C158.192 229.415 158.052 229.937 157.772 230.376C157.501 230.815 157.133 231.151 156.666 231.384C156.199 231.617 155.672 231.734 155.084 231.734H152.704V235.5H151.192ZM152.704 230.362H154.93C155.462 230.362 155.887 230.222 156.204 229.942C156.521 229.662 156.68 229.279 156.68 228.794V228.654C156.68 228.159 156.521 227.772 156.204 227.492C155.887 227.212 155.462 227.072 154.93 227.072H152.704V230.362ZM161.627 235.5V225.7H165.519C166.117 225.7 166.649 225.821 167.115 226.064C167.591 226.297 167.96 226.633 168.221 227.072C168.492 227.501 168.627 228.019 168.627 228.626V228.808C168.627 229.415 168.487 229.937 168.207 230.376C167.937 230.815 167.568 231.151 167.101 231.384C166.635 231.617 166.107 231.734 165.519 231.734H163.139V235.5H161.627ZM163.139 230.362H165.365C165.897 230.362 166.322 230.222 166.639 229.942C166.957 229.662 167.115 229.279 167.115 228.794V228.654C167.115 228.159 166.957 227.772 166.639 227.492C166.322 227.212 165.897 227.072 165.365 227.072H163.139V230.362ZM172.063 235.5V225.7H173.575V234.128H178.293V235.5H172.063ZM181.678 235.5V225.7H187.852V227.072H183.19V229.886H187.46V231.258H183.19V234.128H187.922V235.5H181.678ZM194.831 235.696C194.093 235.696 193.44 235.565 192.871 235.304C192.301 235.043 191.853 234.66 191.527 234.156C191.209 233.643 191.051 233.022 191.051 232.294V231.944H192.549V232.294C192.549 232.985 192.754 233.503 193.165 233.848C193.585 234.193 194.14 234.366 194.831 234.366C195.531 234.366 196.058 234.221 196.413 233.932C196.767 233.633 196.945 233.251 196.945 232.784C196.945 232.476 196.861 232.224 196.693 232.028C196.525 231.832 196.287 231.678 195.979 231.566C195.671 231.445 195.302 231.333 194.873 231.23L194.355 231.104C193.729 230.955 193.183 230.773 192.717 230.558C192.259 230.334 191.905 230.04 191.653 229.676C191.401 229.312 191.275 228.845 191.275 228.276C191.275 227.697 191.415 227.203 191.695 226.792C191.984 226.381 192.381 226.064 192.885 225.84C193.389 225.616 193.981 225.504 194.663 225.504C195.344 225.504 195.951 225.621 196.483 225.854C197.024 226.087 197.449 226.433 197.757 226.89C198.065 227.347 198.219 227.921 198.219 228.612V229.116H196.721V228.612C196.721 228.192 196.632 227.851 196.455 227.59C196.287 227.329 196.049 227.137 195.741 227.016C195.433 226.895 195.073 226.834 194.663 226.834C194.065 226.834 193.599 226.96 193.263 227.212C192.936 227.455 192.773 227.795 192.773 228.234C192.773 228.533 192.843 228.78 192.983 228.976C193.132 229.163 193.347 229.317 193.627 229.438C193.907 229.559 194.257 229.667 194.677 229.76L195.195 229.886C195.829 230.026 196.389 230.208 196.875 230.432C197.36 230.647 197.743 230.941 198.023 231.314C198.303 231.687 198.443 232.168 198.443 232.756C198.443 233.344 198.293 233.857 197.995 234.296C197.705 234.735 197.29 235.08 196.749 235.332C196.207 235.575 195.568 235.696 194.831 235.696ZM202.03 235.5V225.7H208.204V227.072H203.542V229.886H207.812V231.258H203.542V234.128H208.274V235.5H202.03ZM211.85 235.5V225.7H218.024V227.072H213.362V229.886H217.632V231.258H213.362V234.128H218.094V235.5H211.85ZM221.306 235.5V234.156H222.622V227.044H221.306V225.7H225.226C226.533 225.7 227.532 226.031 228.222 226.694C228.922 227.357 229.272 228.355 229.272 229.69V231.524C229.272 232.859 228.922 233.857 228.222 234.52C227.532 235.173 226.533 235.5 225.226 235.5H221.306ZM224.148 234.128H225.24C226.09 234.128 226.72 233.913 227.13 233.484C227.541 233.055 227.746 232.415 227.746 231.566V229.634C227.746 228.775 227.541 228.136 227.13 227.716C226.72 227.296 226.09 227.086 225.24 227.086H224.148V234.128Z" fill="white"/>
<path d="M430.251 235.696C429.112 235.696 428.202 235.374 427.521 234.73C426.849 234.077 426.513 233.097 426.513 231.79V229.41C426.513 228.131 426.849 227.161 427.521 226.498C428.202 225.835 429.112 225.504 430.251 225.504C431.399 225.504 432.309 225.835 432.981 226.498C433.662 227.161 434.003 228.131 434.003 229.41V231.79C434.003 233.097 433.662 234.077 432.981 234.73C432.309 235.374 431.399 235.696 430.251 235.696ZM430.251 234.38C431.026 234.38 431.6 234.161 431.973 233.722C432.346 233.274 432.533 232.649 432.533 231.846V229.326C432.533 228.523 432.332 227.907 431.931 227.478C431.53 227.039 430.97 226.82 430.251 226.82C429.523 226.82 428.963 227.044 428.571 227.492C428.179 227.931 427.983 228.542 427.983 229.326V231.846C427.983 232.667 428.17 233.297 428.543 233.736C428.926 234.165 429.495 234.38 430.251 234.38ZM441.275 235.696C440.136 235.696 439.226 235.374 438.545 234.73C437.873 234.077 437.537 233.097 437.537 231.79V229.41C437.537 228.131 437.873 227.161 438.545 226.498C439.226 225.835 440.136 225.504 441.275 225.504C442.423 225.504 443.333 225.835 444.005 226.498C444.686 227.161 445.027 228.131 445.027 229.41V231.79C445.027 233.097 444.686 234.077 444.005 234.73C443.333 235.374 442.423 235.696 441.275 235.696ZM441.275 234.38C442.049 234.38 442.623 234.161 442.997 233.722C443.37 233.274 443.557 232.649 443.557 231.846V229.326C443.557 228.523 443.356 227.907 442.955 227.478C442.553 227.039 441.993 226.82 441.275 226.82C440.547 226.82 439.987 227.044 439.595 227.492C439.203 227.931 439.007 228.542 439.007 229.326V231.846C439.007 232.667 439.193 233.297 439.567 233.736C439.949 234.165 440.519 234.38 441.275 234.38ZM447.678 238.3L451.794 225.7H453.236L449.12 238.3H447.678ZM459.603 235.696C458.464 235.696 457.554 235.374 456.873 234.73C456.201 234.077 455.865 233.097 455.865 231.79V229.41C455.865 228.131 456.201 227.161 456.873 226.498C457.554 225.835 458.464 225.504 459.603 225.504C460.751 225.504 461.661 225.835 462.333 226.498C463.014 227.161 463.355 228.131 463.355 229.41V231.79C463.355 233.097 463.014 234.077 462.333 234.73C461.661 235.374 460.751 235.696 459.603 235.696ZM459.603 234.38C460.377 234.38 460.951 234.161 461.325 233.722C461.698 233.274 461.885 232.649 461.885 231.846V229.326C461.885 228.523 461.684 227.907 461.283 227.478C460.881 227.039 460.321 226.82 459.603 226.82C458.875 226.82 458.315 227.044 457.923 227.492C457.531 227.931 457.335 228.542 457.335 229.326V231.846C457.335 232.667 457.521 233.297 457.895 233.736C458.277 234.165 458.847 234.38 459.603 234.38ZM470.626 235.696C469.487 235.696 468.577 235.374 467.896 234.73C467.224 234.077 466.888 233.097 466.888 231.79V229.41C466.888 228.131 467.224 227.161 467.896 226.498C468.577 225.835 469.487 225.504 470.626 225.504C471.774 225.504 472.684 225.835 473.356 226.498C474.037 227.161 474.378 228.131 474.378 229.41V231.79C474.378 233.097 474.037 234.077 473.356 234.73C472.684 235.374 471.774 235.696 470.626 235.696ZM470.626 234.38C471.401 234.38 471.975 234.161 472.348 233.722C472.721 233.274 472.908 232.649 472.908 231.846V229.326C472.908 228.523 472.707 227.907 472.306 227.478C471.905 227.039 471.345 226.82 470.626 226.82C469.898 226.82 469.338 227.044 468.946 227.492C468.554 227.931 468.358 228.542 468.358 229.326V231.846C468.358 232.667 468.545 233.297 468.918 233.736C469.301 234.165 469.87 234.38 470.626 234.38Z" fill="white"/>
</g>
</g>
</g>
<defs>
<filter id="filter0_d_0_260" x="0" y="0" width="661" height="647" filterUnits="userSpaceOnUse" color-interpolation-filters="sRGB">
<feFlood flood-opacity="0" result="BackgroundImageFix"/>
<feColorMatrix in="SourceAlpha" type="matrix" values="0 0 0 0 0 0 0 0 0 0 0 0 0 0 0 0 0 0 127 0" result="hardAlpha"/>
<feOffset dy="39"/>
<feGaussianBlur stdDeviation="30"/>
<feColorMatrix type="matrix" values="0 0 0 0 0 0 0 0 0 0 0 0 0 0 0 0 0 0 0.142481 0"/>
<feBlend mode="normal" in2="BackgroundImageFix" result="effect1_dropShadow_0_260"/>
<feBlend mode="normal" in="SourceGraphic" in2="effect1_dropShadow_0_260" result="shape"/>
</filter>
<filter id="filter1_f_0_260" x="116.177" y="-133.823" width="432.957" height="432.957" filterUnits="userSpaceOnUse" color-interpolation-filters="sRGB">
<feFlood flood-opacity="0" result="BackgroundImageFix"/>
<feBlend mode="normal" in="SourceGraphic" in2="BackgroundImageFix" result="shape"/>
<feGaussianBlur stdDeviation="40" result="effect1_foregroundBlur_0_260"/>
</filter>
<filter id="filter2_f_0_260" x="215.177" y="-138.823" width="432.957" height="432.957" filterUnits="userSpaceOnUse" color-interpolation-filters="sRGB">
<feFlood flood-opacity="0" result="BackgroundImageFix"/>
<feBlend mode="normal" in="SourceGraphic" in2="BackgroundImageFix" result="shape"/>
<feGaussianBlur stdDeviation="40" result="effect1_foregroundBlur_0_260"/>
</filter>
<filter id="filter3_f_0_260" x="84.1768" y="18.1768" width="432.957" height="432.957" filterUnits="userSpaceOnUse" color-interpolation-filters="sRGB">
<feFlood flood-opacity="0" result="BackgroundImageFix"/>
<feBlend mode="normal" in="SourceGraphic" in2="BackgroundImageFix" result="shape"/>
<feGaussianBlur stdDeviation="40" result="effect1_foregroundBlur_0_260"/>
</filter>
<linearGradient id="paint0_linear_0_260" x1="64.9495" y1="327.404" x2="92.4354" y2="579.127" gradientUnits="userSpaceOnUse">
<stop stop-color="white"/>
<stop offset="1" stop-color="#D2D3D9"/>
</linearGradient>
<linearGradient id="paint1_linear_0_260" x1="-68.5922" y1="56.2406" x2="-27.7792" y2="315.081" gradientUnits="userSpaceOnUse">
<stop stop-color="#6348FE"/>
<stop offset="1" stop-color="#610595"/>
</linearGradient>
<clipPath id="clip0_0_260">
<rect width="361" height="38" fill="white" transform="translate(199 404)"/>
</clipPath>
<clipPath id="clip1_0_260">
<rect width="447" height="245" fill="white" transform="translate(60 21)"/>
</clipPath>
<clipPath id="clip2_0_260">
<rect width="383.142" height="18" fill="white" transform="translate(92 221.5)"/>
</clipPath>
</defs>
</svg>
